<svg width="1200" height="1200" viewBox="0 0 1200 1200" fill="none" xmlns="http://www.w3.org/2000/svg">
<path d="M928.5 380.1L626.19 205.56C618.226 200.966 609.194 198.547 600 198.547C590.806 198.547 581.774 200.966 573.81 205.56L271.5 380.1C263.539 384.699 256.928 391.311 252.331 399.273C247.734 407.235 245.312 416.266 245.31 425.46V774.54C245.312 783.734 247.734 792.765 252.331 800.727C256.928 808.689 263.539 815.301 271.5 819.9L573.81 994.44C581.774 999.034 590.806 1001.45 600 1001.45C609.194 1001.45 618.226 999.034 626.19 994.44L928.5 819.9C936.461 815.301 943.072 808.689 947.669 800.727C952.266 792.765 954.688 783.734 954.69 774.54V425.46C954.688 416.266 952.266 407.235 947.669 399.273C943.072 391.311 936.461 384.699 928.5 380.1Z" fill="white"/>
<path d="M600 537.08C539.58 537.08 475.36 525.54 475.36 504.15C475.36 482.76 539.58 471.21 600 471.21C660.42 471.21 724.64 482.76 724.64 504.15C724.64 525.54 660.42 537.08 600 537.08ZM600 476.32C529.56 476.32 480.46 490.99 480.46 504.15C480.46 517.31 529.56 532 600 532C670.44 532 719.54 517.33 719.54 504.17C719.54 491.01 670.44 476.32 600 476.32Z" fill="#6D5CE4"/>
<path d="M600 558.48C539.58 558.48 475.36 546.94 475.36 525.55C475.36 504.16 539.58 492.61 600 492.61C660.42 492.61 724.64 504.16 724.64 525.55C724.64 546.94 660.42 558.48 600 558.48ZM600 497.72C529.56 497.72 480.46 512.39 480.46 525.55C480.46 538.71 529.56 553.37 600 553.37C670.44 553.37 719.54 538.71 719.54 525.55C719.54 512.39 670.44 497.72 600 497.72Z" fill="#6D5CE4"/>
<path d="M724.65 504.15H719.54V525.55H724.65V504.15Z" fill="#6D5CE4"/>
<path d="M480.47 504.15H475.36V525.55H480.47V504.15Z" fill="#6D5CE4"/>
<path d="M602.72 609.25C598.472 609.25 594.319 607.99 590.786 605.63C587.254 603.27 584.501 599.915 582.875 595.99C581.249 592.065 580.824 587.746 581.653 583.579C582.482 579.413 584.527 575.585 587.531 572.581C590.535 569.577 594.363 567.532 598.529 566.703C602.696 565.874 607.015 566.299 610.94 567.925C614.865 569.551 618.22 572.304 620.58 575.836C622.94 579.369 624.2 583.522 624.2 587.77C624.192 593.464 621.926 598.923 617.9 602.95C613.873 606.976 608.414 609.242 602.72 609.25ZM602.72 571.4C599.482 571.4 596.317 572.36 593.625 574.159C590.933 575.958 588.835 578.514 587.596 581.505C586.357 584.497 586.033 587.788 586.665 590.964C587.296 594.139 588.855 597.056 591.145 599.345C593.434 601.635 596.351 603.194 599.526 603.825C602.702 604.457 605.993 604.133 608.985 602.894C611.976 601.655 614.532 599.557 616.331 596.865C618.13 594.173 619.09 591.008 619.09 587.77C619.087 583.429 617.362 579.267 614.292 576.198C611.223 573.128 607.061 571.403 602.72 571.4Z" fill="#6D5CE4"/>
<path d="M602.73 575C596.86 575 592.09 569.81 592.09 563.42C592.09 557.03 596.86 551.85 602.73 551.85C608.6 551.85 613.38 557.04 613.38 563.42C613.38 569.8 608.61 575 602.73 575ZM602.73 557C599.68 557 597.19 559.91 597.19 563.47C597.19 567.03 599.68 569.95 602.73 569.95C605.78 569.95 608.28 567.04 608.28 563.47C608.28 559.9 605.79 557 602.73 557Z" fill="#6D5CE4"/>
<path d="M608 556.53L603.45 554.2C604.224 552.695 604.795 551.095 605.15 549.44C605.8 546.37 606.58 542.7 604.54 539.68C603.546 538.301 602.258 537.161 600.768 536.341C599.279 535.521 597.627 535.043 595.93 534.94C591.93 535.17 590.12 535.94 589.79 536.23L586.5 532.32C588.65 530.51 593.17 529.99 595.67 529.84C598.25 529.895 600.781 530.557 603.057 531.773C605.333 532.989 607.291 534.725 608.77 536.84C612.03 541.65 610.86 547.13 610.17 550.4C609.719 552.53 608.989 554.591 608 556.53Z" fill="#6D5CE4"/>
<path d="M424.49 663.847V687.449H436.291C437.908 687.449 439.429 687.148 440.855 686.545C442.28 685.914 443.527 685.064 444.596 683.995C445.665 682.926 446.502 681.679 447.105 680.254C447.735 678.801 448.05 677.266 448.05 675.648C448.05 674.031 447.735 672.51 447.105 671.084C446.502 669.631 445.665 668.37 444.596 667.301C443.527 666.232 442.28 665.396 440.855 664.793C439.429 664.163 437.908 663.847 436.291 663.847H424.49ZM424.49 711.01H412.689V652.047H436.291C438.456 652.047 440.539 652.334 442.54 652.91C444.542 653.458 446.406 654.253 448.133 655.295C449.887 656.309 451.477 657.543 452.902 658.996C454.355 660.421 455.589 662.011 456.603 663.765C457.645 665.52 458.439 667.397 458.988 669.398C459.563 671.4 459.851 673.483 459.851 675.648C459.851 678.883 459.234 681.939 458.001 684.818C456.767 687.669 455.082 690.163 452.943 692.301C450.805 694.439 448.297 696.125 445.419 697.359C442.568 698.592 439.525 699.209 436.291 699.209H424.49V711.01ZM508.247 711.01H505.534L501.175 704.966C500.106 705.925 498.968 706.83 497.762 707.679C496.583 708.502 495.336 709.228 494.02 709.859C492.705 710.462 491.348 710.941 489.95 711.298C488.579 711.654 487.181 711.832 485.756 711.832C482.658 711.832 479.739 711.312 476.997 710.27C474.284 709.228 471.899 707.721 469.843 705.747C467.814 703.746 466.211 701.306 465.032 698.428C463.853 695.55 463.264 692.274 463.264 688.601C463.264 685.174 463.853 682.035 465.032 679.185C466.211 676.306 467.814 673.839 469.843 671.783C471.899 669.727 474.284 668.137 476.997 667.014C479.739 665.862 482.658 665.287 485.756 665.287C487.181 665.287 488.593 665.465 489.991 665.821C491.389 666.178 492.746 666.671 494.062 667.301C495.377 667.932 496.625 668.672 497.803 669.522C499.009 670.372 500.133 671.29 501.175 672.277L505.534 667.055H508.247V711.01ZM496.94 688.601C496.94 687.066 496.638 685.585 496.035 684.16C495.46 682.707 494.665 681.432 493.65 680.336C492.636 679.212 491.444 678.321 490.073 677.663C488.73 676.978 487.291 676.635 485.756 676.635C484.221 676.635 482.768 676.896 481.397 677.416C480.054 677.937 478.875 678.705 477.861 679.719C476.874 680.733 476.093 681.994 475.517 683.502C474.942 684.982 474.654 686.682 474.654 688.601C474.654 690.519 474.942 692.233 475.517 693.74C476.093 695.221 476.874 696.468 477.861 697.482C478.875 698.496 480.054 699.264 481.397 699.785C482.768 700.306 484.221 700.566 485.756 700.566C487.291 700.566 488.73 700.237 490.073 699.579C491.444 698.894 492.636 698.003 493.65 696.906C494.665 695.783 495.46 694.508 496.035 693.082C496.638 691.63 496.94 690.136 496.94 688.601ZM572.433 695.097C572.433 697.4 571.994 699.579 571.117 701.635C570.24 703.664 569.034 705.432 567.499 706.939C565.991 708.447 564.209 709.639 562.153 710.517C560.125 711.394 557.945 711.832 555.615 711.832C553.532 711.832 551.531 711.476 549.612 710.763C547.693 710.023 545.953 708.954 544.39 707.556C542.855 708.954 541.128 710.023 539.209 710.763C537.318 711.476 535.317 711.832 533.206 711.832C530.876 711.832 528.697 711.394 526.668 710.517C524.64 709.639 522.858 708.447 521.323 706.939C519.815 705.432 518.623 703.664 517.746 701.635C516.868 699.579 516.43 697.4 516.43 695.097V667.055H527.655V695.097C527.655 695.865 527.792 696.591 528.066 697.277C528.368 697.934 528.765 698.524 529.259 699.045C529.78 699.538 530.369 699.936 531.027 700.237C531.712 700.511 532.438 700.648 533.206 700.648C533.974 700.648 534.7 700.511 535.385 700.237C536.071 699.936 536.674 699.538 537.194 699.045C537.715 698.524 538.113 697.934 538.387 697.277C538.688 696.591 538.839 695.865 538.839 695.097V667.055H550.023V695.097C550.023 695.865 550.174 696.591 550.476 697.277C550.777 697.934 551.175 698.524 551.668 699.045C552.189 699.538 552.778 699.936 553.436 700.237C554.121 700.511 554.848 700.648 555.615 700.648C556.383 700.648 557.109 700.511 557.795 700.237C558.48 699.936 559.069 699.538 559.563 699.045C560.084 698.524 560.495 697.934 560.796 697.277C561.098 696.591 561.249 695.865 561.249 695.097V667.055H572.433V695.097ZM604.752 711.01H579.094V699.826H604.752C605.519 699.826 606.177 699.552 606.725 699.004C607.274 698.455 607.548 697.797 607.548 697.03C607.548 696.235 607.274 695.714 606.725 695.467C606.177 695.221 605.519 695.097 604.752 695.097H593.074C591.128 695.097 589.305 694.727 587.605 693.987C585.906 693.247 584.426 692.246 583.165 690.985C581.904 689.697 580.903 688.203 580.163 686.504C579.45 684.804 579.094 682.981 579.094 681.035C579.094 679.089 579.45 677.266 580.163 675.566C580.903 673.867 581.904 672.386 583.165 671.125C584.426 669.864 585.906 668.878 587.605 668.165C589.305 667.425 591.128 667.055 593.074 667.055H615.812V678.239H593.074C592.307 678.239 591.649 678.513 591.1 679.061C590.552 679.609 590.278 680.267 590.278 681.035C590.278 681.83 590.552 682.515 591.1 683.091C591.649 683.639 592.307 683.913 593.074 683.913H604.752C606.67 683.913 608.48 684.242 610.179 684.9C611.879 685.53 613.359 686.421 614.62 687.573C615.881 688.724 616.881 690.108 617.622 691.726C618.362 693.343 618.732 695.111 618.732 697.03C618.732 698.976 618.362 700.799 617.622 702.499C616.881 704.171 615.881 705.651 614.62 706.939C613.359 708.2 611.879 709.201 610.179 709.941C608.48 710.654 606.67 711.01 604.752 711.01ZM637.728 663.847V687.449H649.529C651.147 687.449 652.668 687.148 654.093 686.545C655.519 685.914 656.766 685.064 657.835 683.995C658.904 682.926 659.74 681.679 660.343 680.254C660.974 678.801 661.289 677.266 661.289 675.648C661.289 674.031 660.974 672.51 660.343 671.084C659.74 669.631 658.904 668.37 657.835 667.301C656.766 666.232 655.519 665.396 654.093 664.793C652.668 664.163 651.147 663.847 649.529 663.847H637.728ZM637.728 711.01H625.927V652.047H649.529C651.695 652.047 653.778 652.334 655.779 652.91C657.78 653.458 659.644 654.253 661.371 655.295C663.126 656.309 664.716 657.543 666.141 658.996C667.594 660.421 668.827 662.011 669.842 663.765C670.883 665.52 671.678 667.397 672.227 669.398C672.802 671.4 673.09 673.483 673.09 675.648C673.09 678.883 672.473 681.939 671.24 684.818C670.006 687.669 668.32 690.163 666.182 692.301C664.044 694.439 661.536 696.125 658.658 697.359C655.807 698.592 652.764 699.209 649.529 699.209H637.728V711.01ZM690.154 711.01H678.847V649.456H690.154V711.01ZM741.387 711.01H738.673L734.315 704.966C733.246 705.925 732.108 706.83 730.902 707.679C729.723 708.502 728.476 709.228 727.16 709.859C725.845 710.462 724.488 710.941 723.09 711.298C721.719 711.654 720.321 711.832 718.896 711.832C715.798 711.832 712.879 711.312 710.137 710.27C707.424 709.228 705.039 707.721 702.983 705.747C700.954 703.746 699.351 701.306 698.172 698.428C696.993 695.55 696.404 692.274 696.404 688.601C696.404 685.174 696.993 682.035 698.172 679.185C699.351 676.306 700.954 673.839 702.983 671.783C705.039 669.727 707.424 668.137 710.137 667.014C712.879 665.862 715.798 665.287 718.896 665.287C720.321 665.287 721.733 665.465 723.131 665.821C724.529 666.178 725.886 666.671 727.202 667.301C728.517 667.932 729.765 668.672 730.943 669.522C732.149 670.372 733.273 671.29 734.315 672.277L738.673 667.055H741.387V711.01ZM730.08 688.601C730.08 687.066 729.778 685.585 729.175 684.16C728.6 682.707 727.805 681.432 726.79 680.336C725.776 679.212 724.584 678.321 723.213 677.663C721.87 676.978 720.431 676.635 718.896 676.635C717.361 676.635 715.908 676.896 714.537 677.416C713.194 677.937 712.015 678.705 711.001 679.719C710.014 680.733 709.233 681.994 708.657 683.502C708.082 684.982 707.794 686.682 707.794 688.601C707.794 690.519 708.082 692.233 708.657 693.74C709.233 695.221 710.014 696.468 711.001 697.482C712.015 698.496 713.194 699.264 714.537 699.785C715.908 700.306 717.361 700.566 718.896 700.566C720.431 700.566 721.87 700.237 723.213 699.579C724.584 698.894 725.776 698.003 726.79 696.906C727.805 695.783 728.6 694.508 729.175 693.082C729.778 691.63 730.08 690.136 730.08 688.601ZM761.206 711.01H749.981V666.972H752.695L756.395 671.249C758.205 669.604 760.247 668.343 762.522 667.466C764.825 666.561 767.223 666.109 769.718 666.109C772.404 666.109 774.94 666.63 777.325 667.671C779.709 668.686 781.793 670.097 783.575 671.907C785.356 673.688 786.754 675.785 787.769 678.198C788.81 680.583 789.331 683.132 789.331 685.846V711.01H778.106V685.846C778.106 684.694 777.886 683.612 777.448 682.597C777.009 681.556 776.406 680.651 775.639 679.884C774.871 679.116 773.98 678.513 772.966 678.074C771.952 677.636 770.869 677.416 769.718 677.416C768.539 677.416 767.429 677.636 766.387 678.074C765.345 678.513 764.441 679.116 763.673 679.884C762.906 680.651 762.303 681.556 761.864 682.597C761.426 683.612 761.206 684.694 761.206 685.846V711.01Z" fill="#6356E4"/>
</svg>
